Saira-PARAMETRIC-JUN_XTSP-min.ufo
<glyph name="A" format="2">
  <advance width="606"/>
  <unicode hex="0041"/>
  <anchor x="303" y="0" name="bottom"/>
  <anchor x="549" y="10" name="ogonek"/>
  <anchor x="303" y="688" name="top"/>
  <outline>
    <contour>
      <point x="0" y="0" type="line"/>
      <point x="87" y="0" type="line"/>
      <point x="300" y="620" type="line"/>
      <point x="306" y="620" type="line"/>
      <point x="519" y="0" type="line"/>
      <point x="606" y="0" type="line"/>
      <point x="367" y="688" type="line"/>
      <point x="239" y="688" type="line"/>
    </contour>
    <contour>
      <point x="115" y="189" type="line"/>
      <point x="490" y="189" type="line"/>
      <point x="463" y="263" type="line"/>
      <point x="142" y="263" type="line"/>
    </contour>
  </outline>
</glyph>
<glyph name="B" format="2">
  <advance width="506"/>
  <unicode hex="0042"/>
  <anchor x="241" y="0" name="bottom"/>
  <anchor x="241" y="688" name="top"/>
  <outline>
    <contour>
      <point x="0" y="0" type="line"/>
      <point x="266" y="0" type="line" smooth="yes"/>
      <point x="461" y="0"/>
      <point x="514" y="40"/>
      <point x="514" y="190" type="curve" smooth="yes"/>
      <point x="514" y="197" type="line" smooth="yes"/>
      <point x="514" y="335"/>
      <point x="460" y="375"/>
      <point x="266" y="375" type="curve" smooth="yes"/>
      <point x="66" y="375" type="line"/>
      <point x="66" y="315" type="line"/>
      <point x="266" y="315" type="line" smooth="yes"/>
      <point x="407" y="315"/>
      <point x="432" y="299"/>
      <point x="432" y="211" type="curve" smooth="yes"/>
      <point x="432" y="176" type="line" smooth="yes"/>
      <point x="432" y="89"/>
      <point x="407" y="74"/>
      <point x="266" y="74" type="curve" smooth="yes"/>
      <point x="45" y="74" type="line"/>
      <point x="82" y="43" type="line"/>
      <point x="82" y="645" type="line"/>
      <point x="45" y="614" type="line"/>
      <point x="252" y="614" type="line" smooth="yes"/>
      <point x="393" y="614"/>
      <point x="418" y="600"/>
      <point x="418" y="518" type="curve" smooth="yes"/>
      <point x="418" y="483" type="line" smooth="yes"/>
      <point x="418" y="400"/>
      <point x="393" y="385"/>
      <point x="252" y="385" type="curve" smooth="yes"/>
      <point x="66" y="385" type="line"/>
      <point x="66" y="325" type="line"/>
      <point x="252" y="325" type="line" smooth="yes"/>
      <point x="446" y="325"/>
      <point x="500" y="364"/>
      <point x="500" y="497" type="curve" smooth="yes"/>
      <point x="500" y="504" type="line" smooth="yes"/>
      <point x="500" y="649"/>
      <point x="447" y="688"/>
      <point x="252" y="688" type="curve" smooth="yes"/>
      <point x="0" y="688" type="line"/>
    </contour>
  </outline>
</glyph>
<glyph name="C" format="2">
  <advance width="438"/>
  <unicode hex="0043"/>
  <anchor x="208" y="0" name="bottom"/>
  <anchor x="208" y="688" name="top"/>
  <outline>
    <contour>
      <point x="278" y="-8" type="curve" smooth="yes"/>
      <point x="334" y="-8"/>
      <point x="400" y="-3"/>
      <point x="438" y="5" type="curve"/>
      <point x="438" y="76" type="line"/>
      <point x="401" y="70"/>
      <point x="338" y="66"/>
      <point x="278" y="66" type="curve" smooth="yes"/>
      <point x="95" y="66"/>
      <point x="82" y="83"/>
      <point x="82" y="310" type="curve" smooth="yes"/>
      <point x="82" y="378" type="line" smooth="yes"/>
      <point x="82" y="605"/>
      <point x="95" y="622"/>
      <point x="278" y="622" type="curve" smooth="yes"/>
      <point x="335" y="622"/>
      <point x="391" y="618"/>
      <point x="434" y="612" type="curve"/>
      <point x="434" y="681" type="line"/>
      <point x="397" y="690"/>
      <point x="332" y="696"/>
      <point x="278" y="696" type="curve" smooth="yes"/>
      <point x="42" y="696"/>
      <point x="0" y="644"/>
      <point x="0" y="349" type="curve" smooth="yes"/>
      <point x="0" y="339" type="line" smooth="yes"/>
      <point x="0" y="44"/>
      <point x="42" y="-8"/>
    </contour>
  </outline>
</glyph>
<glyph name="D" format="2">
  <advance width="504"/>
  <unicode hex="0044"/>
  <anchor x="240" y="0" name="bottom"/>
  <anchor x="70" y="344" name="center"/>
  <anchor x="240" y="688" name="top"/>
  <outline>
    <contour>
      <point x="0" y="0" type="line"/>
      <point x="226" y="0" type="line" smooth="yes"/>
      <point x="462" y="0"/>
      <point x="504" y="51"/>
      <point x="504" y="339" type="curve" smooth="yes"/>
      <point x="504" y="349" type="line" smooth="yes"/>
      <point x="504" y="637"/>
      <point x="462" y="688"/>
      <point x="226" y="688" type="curve" smooth="yes"/>
      <point x="0" y="688" type="line"/>
    </contour>
    <contour>
      <point x="82" y="37" type="line"/>
      <point x="82" y="651" type="line"/>
      <point x="45" y="614" type="line"/>
      <point x="226" y="614" type="line" smooth="yes"/>
      <point x="409" y="614"/>
      <point x="422" y="597"/>
      <point x="422" y="377" type="curve" smooth="yes"/>
      <point x="422" y="311" type="line" smooth="yes"/>
      <point x="422" y="91"/>
      <point x="409" y="74"/>
      <point x="226" y="74" type="curve" smooth="yes"/>
      <point x="45" y="74" type="line"/>
    </contour>
  </outline>
</glyph>
<glyph name="E" format="2">
  <advance width="443"/>
  <unicode hex="0045"/>
  <anchor x="197" y="0" name="bottom"/>
  <anchor x="434" y="10" name="ogonek"/>
  <anchor x="197" y="688" name="top"/>
  <anchor x="-80" y="688" name="topleft"/>
  <outline>
    <contour>
      <point x="45" y="385" type="line"/>
      <point x="45" y="311" type="line"/>
      <point x="396" y="311" type="line"/>
      <point x="396" y="385" type="line"/>
    </contour>
    <contour>
      <point x="82" y="37" type="line"/>
      <point x="82" y="651" type="line"/>
      <point x="45" y="614" type="line"/>
      <point x="443" y="614" type="line"/>
      <point x="443" y="688" type="line"/>
      <point x="0" y="688" type="line"/>
      <point x="0" y="0" type="line"/>
      <point x="443" y="0" type="line"/>
      <point x="443" y="74" type="line"/>
      <point x="45" y="74" type="line"/>
    </contour>
  </outline>
</glyph>
<glyph name="F" format="2">
  <advance width="433"/>
  <unicode hex="0046"/>
  <anchor x="187" y="0" name="bottom"/>
  <anchor x="187" y="688" name="top"/>
  <outline>
    <contour>
      <point x="45" y="375" type="line"/>
      <point x="45" y="301" type="line"/>
      <point x="386" y="301" type="line"/>
      <point x="386" y="375" type="line"/>
    </contour>
    <contour>
      <point x="82" y="0" type="line"/>
      <point x="82" y="651" type="line"/>
      <point x="45" y="614" type="line"/>
      <point x="433" y="614" type="line"/>
      <point x="433" y="688" type="line"/>
      <point x="0" y="688" type="line"/>
      <point x="0" y="0" type="line"/>
    </contour>
  </outline>
</glyph>
<glyph name="G" format="2">
  <advance width="508"/>
  <unicode hex="0047"/>
  <anchor x="264" y="0" name="bottom"/>
  <anchor x="264" y="688" name="top"/>
  <outline>
    <contour>
      <point x="322" y="-8" type="curve" smooth="yes"/>
      <point x="391" y="-8"/>
      <point x="466" y="1"/>
      <point x="508" y="15" type="curve"/>
      <point x="508" y="370" type="line"/>
      <point x="269" y="370" type="line"/>
      <point x="269" y="300" type="line"/>
      <point x="428" y="300" type="line"/>
      <point x="428" y="72" type="line"/>
      <point x="392" y="68"/>
      <point x="355" y="66"/>
      <point x="317" y="66" type="curve" smooth="yes"/>
      <point x="98" y="66"/>
      <point x="82" y="83"/>
      <point x="82" y="310" type="curve" smooth="yes"/>
      <point x="82" y="378" type="line" smooth="yes"/>
      <point x="82" y="605"/>
      <point x="98" y="622"/>
      <point x="317" y="622" type="curve" smooth="yes"/>
      <point x="385" y="622"/>
      <point x="451" y="618"/>
      <point x="503" y="612" type="curve"/>
      <point x="503" y="681" type="line"/>
      <point x="461" y="690"/>
      <point x="385" y="696"/>
      <point x="322" y="696" type="curve" smooth="yes"/>
      <point x="49" y="696"/>
      <point x="0" y="644"/>
      <point x="0" y="349" type="curve" smooth="yes"/>
      <point x="0" y="339" type="line" smooth="yes"/>
      <point x="0" y="44"/>
      <point x="49" y="-8"/>
    </contour>
  </outline>
</glyph>
<glyph name="H" format="2">
  <advance width="514"/>
  <unicode hex="0048"/>
  <anchor x="257" y="0" name="bottom"/>
  <anchor x="257" y="550" name="center"/>
  <anchor x="257" y="688" name="top"/>
  <anchor x="-80" y="688" name="topleft"/>
  <outline>
    <contour>
      <point x="0" y="0" type="line"/>
      <point x="82" y="0" type="line"/>
      <point x="82" y="347" type="line"/>
      <point x="45" y="310" type="line"/>
      <point x="469" y="310" type="line"/>
      <point x="432" y="347" type="line"/>
      <point x="432" y="0" type="line"/>
      <point x="514" y="0" type="line"/>
      <point x="514" y="688" type="line"/>
      <point x="432" y="688" type="line"/>
      <point x="432" y="347" type="line"/>
      <point x="469" y="384" type="line"/>
      <point x="45" y="384" type="line"/>
      <point x="82" y="347" type="line"/>
      <point x="82" y="688" type="line"/>
      <point x="0" y="688" type="line"/>
    </contour>
  </outline>
</glyph>
<glyph name="I" format="2">
  <advance width="82"/>
  <unicode hex="0049"/>
  <anchor x="41" y="0" name="bottom"/>
  <anchor x="154" y="10" name="ogonek"/>
  <anchor x="41" y="688" name="top"/>
  <anchor x="-80" y="688" name="topleft"/>
  <outline>
    <contour>
      <point x="0" y="0" type="line"/>
      <point x="82" y="0" type="line"/>
      <point x="82" y="688" type="line"/>
      <point x="0" y="688" type="line"/>
    </contour>
  </outline>
</glyph>
<glyph name="J" format="2">
  <advance width="214"/>
  <unicode hex="004A"/>
  <anchor x="131" y="0" name="bottom"/>
  <anchor x="131" y="688" name="top"/>
  <outline>
    <contour>
      <point x="214" y="688" type="line"/>
      <point x="132" y="688" type="line"/>
      <point x="132" y="141" type="line" smooth="yes"/>
      <point x="132" y="78"/>
      <point x="111" y="66"/>
      <point x="0" y="66" type="curve"/>
      <point x="0" y="-4" type="line"/>
      <point x="167" y="-4"/>
      <point x="214" y="29"/>
      <point x="214" y="148" type="curve" smooth="yes"/>
    </contour>
  </outline>
</glyph>
<glyph name="K" format="2">
  <advance width="532"/>
  <unicode hex="004B"/>
  <anchor x="232" y="0" name="bottom"/>
  <anchor x="232" y="688" name="top"/>
  <outline>
    <contour>
      <point x="77" y="313" type="line"/>
      <point x="211" y="313" type="line"/>
      <point x="438" y="0" type="line"/>
      <point x="537" y="0" type="line"/>
      <point x="280" y="350" type="line"/>
      <point x="527" y="688" type="line"/>
      <point x="428" y="688" type="line"/>
      <point x="211" y="387" type="line"/>
      <point x="77" y="387" type="line"/>
    </contour>
    <contour>
      <point x="0" y="0" type="line"/>
      <point x="82" y="0" type="line"/>
      <point x="82" y="688" type="line"/>
      <point x="0" y="688" type="line"/>
    </contour>
  </outline>
</glyph>
<glyph name="L" format="2">
  <advance width="423"/>
  <unicode hex="004C"/>
  <anchor x="172" y="0" name="bottom"/>
  <anchor x="172" y="344" name="center"/>
  <anchor x="172" y="688" name="top"/>
  <anchor x="423" y="688" name="topright"/>
  <outline>
    <contour>
      <point x="0" y="0" type="line"/>
      <point x="423" y="0" type="line"/>
      <point x="423" y="74" type="line"/>
      <point x="45" y="74" type="line"/>
      <point x="82" y="37" type="line"/>
      <point x="82" y="688" type="line"/>
      <point x="0" y="688" type="line"/>
    </contour>
  </outline>
</glyph>
<glyph name="M" format="2">
  <advance width="616"/>
  <unicode hex="004D"/>
  <outline>
    <contour>
      <point x="0" y="0" type="line"/>
      <point x="82" y="0" type="line"/>
      <point x="82" y="585" type="line"/>
      <point x="261" y="0" type="line"/>
      <point x="355" y="0" type="line"/>
      <point x="534" y="585" type="line"/>
      <point x="534" y="0" type="line"/>
      <point x="616" y="0" type="line"/>
      <point x="616" y="688" type="line"/>
      <point x="485" y="688" type="line"/>
      <point x="308" y="105" type="line"/>
      <point x="131" y="688" type="line"/>
      <point x="0" y="688" type="line"/>
    </contour>
  </outline>
</glyph>
<glyph name="N" format="2">
  <advance width="514"/>
  <unicode hex="004E"/>
  <anchor x="257" y="0" name="bottom"/>
  <anchor x="257" y="688" name="top"/>
  <outline>
    <contour>
      <point x="0" y="0" type="line"/>
      <point x="82" y="0" type="line"/>
      <point x="82" y="542" type="line"/>
      <point x="426" y="0" type="line"/>
      <point x="514" y="0" type="line"/>
      <point x="514" y="688" type="line"/>
      <point x="432" y="688" type="line"/>
      <point x="432" y="146" type="line"/>
      <point x="88" y="688" type="line"/>
      <point x="0" y="688" type="line"/>
    </contour>
  </outline>
</glyph>
<glyph name="O" format="2">
  <advance width="552"/>
  <unicode hex="004F"/>
  <anchor x="276" y="-2" name="bottom"/>
  <anchor x="276" y="344" name="center"/>
  <anchor x="559" y="10" name="ogonek"/>
  <anchor x="276" y="688" name="top"/>
  <anchor x="-58" y="688" name="topleft"/>
  <anchor x="610" y="688" name="topright"/>
  <outline>
    <contour>
      <point x="276" y="-8" type="curve" smooth="yes"/>
      <point x="512" y="-8"/>
      <point x="554" y="44"/>
      <point x="554" y="339" type="curve" smooth="yes"/>
      <point x="554" y="349" type="line" smooth="yes"/>
      <point x="554" y="644"/>
      <point x="512" y="696"/>
      <point x="276" y="696" type="curve" smooth="yes"/>
      <point x="40" y="696"/>
      <point x="-2" y="644"/>
      <point x="-2" y="349" type="curve" smooth="yes"/>
      <point x="-2" y="339" type="line" smooth="yes"/>
      <point x="-2" y="44"/>
      <point x="40" y="-8"/>
    </contour>
    <contour>
      <point x="276" y="66" type="curve" smooth="yes"/>
      <point x="93" y="66"/>
      <point x="80" y="83"/>
      <point x="80" y="310" type="curve" smooth="yes"/>
      <point x="80" y="378" type="line" smooth="yes"/>
      <point x="80" y="605"/>
      <point x="93" y="622"/>
      <point x="276" y="622" type="curve" smooth="yes"/>
      <point x="459" y="622"/>
      <point x="472" y="605"/>
      <point x="472" y="378" type="curve" smooth="yes"/>
      <point x="472" y="310" type="line" smooth="yes"/>
      <point x="472" y="83"/>
      <point x="459" y="66"/>
    </contour>
  </outline>
</glyph>
<glyph name="P" format="2">
  <advance width="455"/>
  <unicode hex="0050"/>
  <anchor x="193" y="0" name="bottom"/>
  <anchor x="193" y="688" name="top"/>
  <outline>
    <contour>
      <point x="0" y="0" type="line"/>
      <point x="82" y="0" type="line"/>
      <point x="82" y="645" type="line"/>
      <point x="45" y="614" type="line"/>
      <point x="207" y="614" type="line" smooth="yes"/>
      <point x="363" y="614"/>
      <point x="373" y="605"/>
      <point x="373" y="485" type="curve" smooth="yes"/>
      <point x="373" y="450" type="line" smooth="yes"/>
      <point x="373" y="330"/>
      <point x="363" y="321"/>
      <point x="207" y="321" type="curve" smooth="yes"/>
      <point x="66" y="321" type="line"/>
      <point x="66" y="247" type="line"/>
      <point x="207" y="247" type="line" smooth="yes"/>
      <point x="418" y="247"/>
      <point x="455" y="280"/>
      <point x="455" y="464" type="curve" smooth="yes"/>
      <point x="455" y="471" type="line" smooth="yes"/>
      <point x="455" y="655"/>
      <point x="418" y="688"/>
      <point x="207" y="688" type="curve" smooth="yes"/>
      <point x="0" y="688" type="line"/>
    </contour>
  </outline>
</glyph>
<glyph name="S" format="2">
  <advance width="494"/>
  <unicode hex="0053"/>
  <anchor x="247" y="0" name="bottom"/>
  <anchor x="247" y="688" name="top"/>
  <outline>
    <contour>
      <point x="252" y="-8" type="curve" smooth="yes"/>
      <point x="437" y="-8"/>
      <point x="494" y="41"/>
      <point x="494" y="198" type="curve" smooth="yes"/>
      <point x="494" y="319"/>
      <point x="458" y="363"/>
      <point x="347" y="375" type="curve" smooth="yes"/>
      <point x="165" y="395" type="line" smooth="yes"/>
      <point x="95" y="404"/>
      <point x="82" y="420"/>
      <point x="82" y="494" type="curve" smooth="yes"/>
      <point x="82" y="601"/>
      <point x="107" y="622"/>
      <point x="238" y="622" type="curve" smooth="yes"/>
      <point x="311" y="622"/>
      <point x="401" y="615"/>
      <point x="466" y="605" type="curve"/>
      <point x="466" y="677" type="line"/>
      <point x="387" y="688"/>
      <point x="298" y="696"/>
      <point x="242" y="696" type="curve" smooth="yes"/>
      <point x="59" y="696"/>
      <point x="0" y="648"/>
      <point x="0" y="496" type="curve" smooth="yes"/>
      <point x="0" y="377"/>
      <point x="39" y="330"/>
      <point x="145" y="319" type="curve" smooth="yes"/>
      <point x="327" y="299" type="line" smooth="yes"/>
      <point x="402" y="289"/>
      <point x="412" y="278"/>
      <point x="412" y="198" type="curve" smooth="yes"/>
      <point x="412" y="88"/>
      <point x="385" y="66"/>
      <point x="254" y="66" type="curve" smooth="yes"/>
      <point x="175" y="66"/>
      <point x="77" y="73"/>
      <point x="6" y="83" type="curve"/>
      <point x="6" y="11" type="line"/>
      <point x="94" y="-1"/>
      <point x="191" y="-8"/>
    </contour>
  </outline>
</glyph>
<glyph name="T" format="2">
  <advance width="502"/>
  <unicode hex="0054"/>
  <anchor x="246" y="0" name="bottom"/>
  <anchor x="246" y="344" name="center"/>
  <anchor x="246" y="688" name="top"/>
  <outline>
    <contour>
      <point x="210" y="0" type="line"/>
      <point x="292" y="0" type="line"/>
      <point x="292" y="649" type="line"/>
      <point x="257" y="612" type="line"/>
      <point x="502" y="612" type="line"/>
      <point x="502" y="688" type="line"/>
      <point x="0" y="688" type="line"/>
      <point x="0" y="612" type="line"/>
      <point x="245" y="612" type="line"/>
      <point x="210" y="649" type="line"/>
    </contour>
  </outline>
</glyph>
<glyph name="U" format="2">
  <advance width="514"/>
  <unicode hex="0055"/>
  <anchor x="257" y="0" name="bottom"/>
  <anchor x="539" y="10" name="ogonek"/>
  <anchor x="257" y="688" name="top"/>
  <anchor x="589" y="688" name="topright"/>
  <outline>
    <contour>
      <point x="257" y="-8" type="curve" smooth="yes"/>
      <point x="475" y="-8"/>
      <point x="514" y="50"/>
      <point x="514" y="326" type="curve" smooth="yes"/>
      <point x="514" y="688" type="line"/>
      <point x="432" y="688" type="line"/>
      <point x="432" y="297" type="line" smooth="yes"/>
      <point x="432" y="91"/>
      <point x="420" y="68"/>
      <point x="257" y="68" type="curve" smooth="yes"/>
      <point x="94" y="68"/>
      <point x="82" y="91"/>
      <point x="82" y="297" type="curve" smooth="yes"/>
      <point x="82" y="688" type="line"/>
      <point x="0" y="688" type="line"/>
      <point x="0" y="326" type="line" smooth="yes"/>
      <point x="0" y="51"/>
      <point x="39" y="-8"/>
    </contour>
  </outline>
</glyph>
<glyph name="V" format="2">
  <advance width="548"/>
  <unicode hex="0056"/>
  <outline>
    <contour>
      <point x="215" y="0" type="line"/>
      <point x="333" y="0" type="line"/>
      <point x="553" y="688" type="line"/>
      <point x="467" y="688" type="line"/>
      <point x="274" y="76" type="line"/>
      <point x="81" y="688" type="line"/>
      <point x="-5" y="688" type="line"/>
    </contour>
  </outline>
</glyph>
<glyph name="W" format="2">
  <advance width="702"/>
  <unicode hex="0057"/>
  <outline>
    <contour>
      <point x="124" y="0" type="line"/>
      <point x="247" y="0" type="line"/>
      <point x="351" y="583" type="line"/>
      <point x="455" y="0" type="line"/>
      <point x="578" y="0" type="line"/>
      <point x="707" y="688" type="line"/>
      <point x="625" y="688" type="line"/>
      <point x="516" y="103" type="line"/>
      <point x="409" y="688" type="line"/>
      <point x="293" y="688" type="line"/>
      <point x="186" y="103" type="line"/>
      <point x="77" y="688" type="line"/>
      <point x="-5" y="688" type="line"/>
    </contour>
  </outline>
</glyph>
<glyph name="X" format="2">
  <advance width="554"/>
  <unicode hex="0058"/>
  <anchor x="274" y="0" name="bottom"/>
  <anchor x="274" y="510" name="top"/>
  <outline>
    <contour>
      <point x="456" y="0" type="line"/>
      <point x="554" y="0" type="line"/>
      <point x="108" y="688" type="line"/>
      <point x="10" y="688" type="line"/>
    </contour>
    <contour>
      <point x="0" y="0" type="line"/>
      <point x="98" y="0" type="line"/>
      <point x="544" y="688" type="line"/>
      <point x="446" y="688" type="line"/>
    </contour>
  </outline>
</glyph>
<glyph name="Y" format="2">
  <advance width="536"/>
  <unicode hex="0059"/>
  <anchor x="269" y="0" name="bottom"/>
  <anchor x="269" y="688" name="top"/>
  <anchor x="-24" y="688" name="topleft"/>
  <outline>
    <contour>
      <point x="227" y="0" type="line"/>
      <point x="309" y="0" type="line"/>
      <point x="309" y="300" type="line"/>
      <point x="290" y="231" type="line"/>
      <point x="536" y="688" type="line"/>
      <point x="443" y="688" type="line"/>
      <point x="268" y="350" type="line"/>
      <point x="93" y="688" type="line"/>
      <point x="0" y="688" type="line"/>
      <point x="246" y="231" type="line"/>
      <point x="227" y="300" type="line"/>
    </contour>
  </outline>
</glyph>
<glyph name="Z" format="2">
  <advance width="493"/>
  <unicode hex="005A"/>
  <anchor x="242" y="0" name="bottom"/>
  <anchor x="242" y="344" name="center"/>
  <anchor x="242" y="688" name="top"/>
  <outline>
    <contour>
      <point x="0" y="0" type="line"/>
      <point x="493" y="0" type="line"/>
      <point x="493" y="74" type="line"/>
      <point x="108" y="74" type="line"/>
      <point x="487" y="622" type="line"/>
      <point x="487" y="688" type="line"/>
      <point x="11" y="688" type="line"/>
      <point x="11" y="614" type="line"/>
      <point x="379" y="614" type="line"/>
      <point x="0" y="66" type="line"/>
    </contour>
  </outline>
</glyph>
<glyph name="a" format="2">
  <advance width="420"/>
  <unicode hex="0061"/>
  <anchor x="222" y="0" name="bottom"/>
  <anchor x="456" y="10" name="ogonek"/>
  <anchor x="222" y="510" name="top"/>
  <outline>
    <contour>
      <point x="165" y="-8" type="curve" smooth="yes"/>
      <point x="260" y="-8"/>
      <point x="313" y="17"/>
      <point x="337" y="73" type="curve"/>
      <point x="341" y="73" type="line"/>
      <point x="350" y="0" type="line"/>
      <point x="420" y="0" type="line"/>
      <point x="420" y="259" type="line" smooth="yes"/>
      <point x="420" y="479"/>
      <point x="388" y="518"/>
      <point x="205" y="518" type="curve" smooth="yes"/>
      <point x="147" y="518"/>
      <point x="87" y="513"/>
      <point x="18" y="503" type="curve"/>
      <point x="18" y="435" type="line"/>
      <point x="75" y="444"/>
      <point x="134" y="448"/>
      <point x="205" y="448" type="curve" smooth="yes"/>
      <point x="329" y="448"/>
      <point x="338" y="436"/>
      <point x="338" y="279" type="curve" smooth="yes"/>
      <point x="338" y="241" type="line" smooth="yes"/>
      <point x="338" y="95"/>
      <point x="311" y="62"/>
      <point x="187" y="62" type="curve" smooth="yes"/>
      <point x="91" y="62"/>
      <point x="74" y="75"/>
      <point x="74" y="149" type="curve" smooth="yes"/>
      <point x="74" y="219"/>
      <point x="96" y="235"/>
      <point x="187" y="235" type="curve" smooth="yes"/>
      <point x="352" y="235" type="line"/>
      <point x="352" y="305" type="line"/>
      <point x="175" y="305" type="line" smooth="yes"/>
      <point x="39" y="305"/>
      <point x="-8" y="263"/>
      <point x="-8" y="143" type="curve" smooth="yes"/>
      <point x="-8" y="34"/>
      <point x="40" y="-8"/>
    </contour>
  </outline>
</glyph>
<glyph name="b" format="2">
  <advance width="444"/>
  <unicode hex="0062"/>
  <anchor x="210" y="0" name="bottom"/>
  <anchor x="55" y="594" name="center"/>
  <anchor x="210" y="510" name="top"/>
  <outline>
    <contour>
      <point x="265" y="-8" type="curve" smooth="yes"/>
      <point x="422" y="-8"/>
      <point x="449" y="31"/>
      <point x="449" y="251" type="curve" smooth="yes"/>
      <point x="449" y="259" type="line" smooth="yes"/>
      <point x="449" y="479"/>
      <point x="422" y="518"/>
      <point x="265" y="518" type="curve" smooth="yes"/>
      <point x="167" y="518"/>
      <point x="111" y="493"/>
      <point x="86" y="437" type="curve"/>
      <point x="82" y="437" type="line"/>
      <point x="82" y="743" type="line"/>
      <point x="0" y="743" type="line"/>
      <point x="0" y="0" type="line"/>
      <point x="73" y="0" type="line"/>
      <point x="82" y="73" type="line"/>
      <point x="86" y="73" type="line"/>
      <point x="111" y="17"/>
      <point x="167" y="-8"/>
    </contour>
    <contour>
      <point x="245" y="62" type="curve" smooth="yes"/>
      <point x="111" y="62"/>
      <point x="82" y="95"/>
      <point x="82" y="244" type="curve" smooth="yes"/>
      <point x="82" y="266" type="line" smooth="yes"/>
      <point x="82" y="415"/>
      <point x="111" y="448"/>
      <point x="245" y="448" type="curve" smooth="yes"/>
      <point x="349" y="448"/>
      <point x="367" y="427"/>
      <point x="367" y="307" type="curve" smooth="yes"/>
      <point x="367" y="203" type="line" smooth="yes"/>
      <point x="367" y="83"/>
      <point x="349" y="62"/>
    </contour>
  </outline>
</glyph>
<glyph name="c" format="2">
  <advance width="355"/>
  <unicode hex="0063"/>
  <anchor x="161" y="0" name="bottom"/>
  <anchor x="161" y="510" name="top"/>
  <outline>
    <contour>
      <point x="214" y="-8" type="curve" smooth="yes"/>
      <point x="264" y="-8"/>
      <point x="321" y="-2"/>
      <point x="355" y="7" type="curve"/>
      <point x="355" y="75" type="line"/>
      <point x="318" y="67"/>
      <point x="257" y="62"/>
      <point x="209" y="62" type="curve" smooth="yes"/>
      <point x="86" y="62"/>
      <point x="77" y="74"/>
      <point x="77" y="231" type="curve" smooth="yes"/>
      <point x="77" y="279" type="line" smooth="yes"/>
      <point x="77" y="436"/>
      <point x="86" y="448"/>
      <point x="209" y="448" type="curve" smooth="yes"/>
      <point x="255" y="448"/>
      <point x="314" y="443"/>
      <point x="350" y="435" type="curve"/>
      <point x="350" y="503" type="line"/>
      <point x="317" y="512"/>
      <point x="262" y="518"/>
      <point x="214" y="518" type="curve" smooth="yes"/>
      <point x="28" y="518"/>
      <point x="-5" y="479"/>
      <point x="-5" y="259" type="curve" smooth="yes"/>
      <point x="-5" y="251" type="line" smooth="yes"/>
      <point x="-5" y="31"/>
      <point x="28" y="-8"/>
    </contour>
  </outline>
</glyph>
<glyph name="d" format="2">
  <advance width="444"/>
  <unicode hex="0064"/>
  <anchor x="270" y="0" name="bottom"/>
  <anchor x="424" y="594" name="center"/>
  <anchor x="270" y="510" name="top"/>
  <anchor x="479" y="743" name="topright"/>
  <outline>
    <contour>
      <point x="179" y="-8" type="curve" smooth="yes"/>
      <point x="277" y="-8"/>
      <point x="333" y="17"/>
      <point x="358" y="73" type="curve"/>
      <point x="362" y="73" type="line"/>
      <point x="371" y="0" type="line"/>
      <point x="444" y="0" type="line"/>
      <point x="444" y="743" type="line"/>
      <point x="362" y="743" type="line"/>
      <point x="362" y="437" type="line"/>
      <point x="358" y="437" type="line"/>
      <point x="333" y="493"/>
      <point x="277" y="518"/>
      <point x="179" y="518" type="curve" smooth="yes"/>
      <point x="22" y="518"/>
      <point x="-5" y="479"/>
      <point x="-5" y="259" type="curve" smooth="yes"/>
      <point x="-5" y="251" type="line" smooth="yes"/>
      <point x="-5" y="31"/>
      <point x="22" y="-8"/>
    </contour>
    <contour>
      <point x="199" y="62" type="curve" smooth="yes"/>
      <point x="95" y="62"/>
      <point x="77" y="83"/>
      <point x="77" y="203" type="curve" smooth="yes"/>
      <point x="77" y="307" type="line" smooth="yes"/>
      <point x="77" y="427"/>
      <point x="95" y="448"/>
      <point x="199" y="448" type="curve" smooth="yes"/>
      <point x="333" y="448"/>
      <point x="362" y="415"/>
      <point x="362" y="266" type="curve" smooth="yes"/>
      <point x="362" y="244" type="line" smooth="yes"/>
      <point x="362" y="95"/>
      <point x="333" y="62"/>
    </contour>
  </outline>
</glyph>
<glyph name="e" format="2">
  <advance width="420"/>
  <unicode hex="0065"/>
  <anchor x="208" y="0" name="bottom"/>
  <anchor x="434" y="10" name="ogonek"/>
  <anchor x="208" y="510" name="top"/>
  <outline>
    <contour>
      <point x="214" y="-8" type="curve" smooth="yes"/>
      <point x="285" y="-8"/>
      <point x="369" y="0"/>
      <point x="415" y="12" type="curve"/>
      <point x="415" y="80" type="line"/>
      <point x="361" y="69"/>
      <point x="278" y="62"/>
      <point x="214" y="62" type="curve" smooth="yes"/>
      <point x="86" y="62"/>
      <point x="77" y="74"/>
      <point x="77" y="231" type="curve" smooth="yes"/>
      <point x="77" y="279" type="line" smooth="yes"/>
      <point x="77" y="436"/>
      <point x="86" y="448"/>
      <point x="214" y="448" type="curve" smooth="yes"/>
      <point x="337" y="448"/>
      <point x="346" y="436"/>
      <point x="346" y="279" type="curve" smooth="yes"/>
      <point x="346" y="251" type="line"/>
      <point x="384" y="286" type="line"/>
      <point x="35" y="286" type="line"/>
      <point x="35" y="216" type="line"/>
      <point x="428" y="216" type="line"/>
      <point x="428" y="259" type="line" smooth="yes"/>
      <point x="428" y="479"/>
      <point x="396" y="518"/>
      <point x="214" y="518" type="curve" smooth="yes"/>
      <point x="28" y="518"/>
      <point x="-5" y="479"/>
      <point x="-5" y="259" type="curve" smooth="yes"/>
      <point x="-5" y="251" type="line" smooth="yes"/>
      <point x="-5" y="31"/>
      <point x="28" y="-8"/>
    </contour>
  </outline>
</glyph>
<glyph name="f" format="2">
  <advance width="317"/>
  <unicode hex="0066"/>
  <anchor x="160" y="0" name="bottom"/>
  <anchor x="160" y="743" name="top"/>
  <outline>
    <contour>
      <point x="103" y="0" type="line"/>
      <point x="185" y="0" type="line"/>
      <point x="185" y="598" type="line" smooth="yes"/>
      <point x="185" y="661"/>
      <point x="206" y="673"/>
      <point x="317" y="673" type="curve"/>
      <point x="317" y="743" type="line"/>
      <point x="150" y="743"/>
      <point x="103" y="710"/>
      <point x="103" y="591" type="curve" smooth="yes"/>
    </contour>
    <contour>
      <point x="0" y="440" type="line"/>
      <point x="120" y="440" type="line"/>
      <point x="120" y="510" type="line"/>
      <point x="0" y="510" type="line"/>
    </contour>
    <contour>
      <point x="169" y="440" type="line"/>
      <point x="317" y="440" type="line"/>
      <point x="317" y="510" type="line"/>
      <point x="169" y="510" type="line"/>
    </contour>
  </outline>
</glyph>
<glyph name="h" format="2">
  <advance width="426"/>
  <unicode hex="0068"/>
  <anchor x="210" y="0" name="bottom"/>
  <anchor x="210" y="510" name="top"/>
  <outline>
    <contour>
      <point x="-2" y="0" type="line"/>
      <point x="80" y="0" type="line"/>
      <point x="80" y="269" type="line" smooth="yes"/>
      <point x="80" y="415"/>
      <point x="107" y="448"/>
      <point x="231" y="448" type="curve" smooth="yes"/>
      <point x="327" y="448"/>
      <point x="344" y="427"/>
      <point x="344" y="307" type="curve" smooth="yes"/>
      <point x="344" y="0" type="line"/>
      <point x="426" y="0" type="line"/>
      <point x="426" y="319" type="line" smooth="yes"/>
      <point x="426" y="463"/>
      <point x="378" y="518"/>
      <point x="253" y="518" type="curve" smooth="yes"/>
      <point x="157" y="518"/>
      <point x="104" y="493"/>
      <point x="80" y="437" type="curve"/>
      <point x="80" y="743" type="line"/>
      <point x="-2" y="743" type="line"/>
    </contour>
  </outline>
</glyph>
<glyph name="i" format="2">
  <advance width="82"/>
  <unicode hex="0069"/>
  <anchor x="91" y="0" name="bottom"/>
  <anchor x="82" y="0" name="ogonek"/>
  <anchor x="41" y="716" name="top"/>
  <outline>
    <contour>
      <point x="0" y="0" type="line"/>
      <point x="82" y="0" type="line"/>
      <point x="82" y="510" type="line"/>
      <point x="0" y="510" type="line"/>
    </contour>
    <contour>
      <point x="-3" y="628" type="line"/>
      <point x="85" y="628" type="line"/>
      <point x="85" y="716" type="line"/>
      <point x="-3" y="716" type="line"/>
    </contour>
  </outline>
</glyph>
<glyph name="j" format="2">
  <advance width="82"/>
  <unicode hex="006A"/>
  <anchor x="41" y="-200" name="bottom"/>
  <anchor x="41" y="716" name="top"/>
  <outline>
    <contour>
      <point x="82" y="510" type="line"/>
      <point x="0" y="510" type="line"/>
      <point x="0" y="-55" type="line" smooth="yes"/>
      <point x="0" y="-118"/>
      <point x="-21" y="-130"/>
      <point x="-132" y="-130" type="curve"/>
      <point x="-132" y="-200" type="line"/>
      <point x="35" y="-200"/>
      <point x="82" y="-167"/>
      <point x="82" y="-48" type="curve" smooth="yes"/>
    </contour>
    <contour>
      <point x="-3" y="628" type="line"/>
      <point x="85" y="628" type="line"/>
      <point x="85" y="716" type="line"/>
      <point x="-3" y="716" type="line"/>
    </contour>
  </outline>
</glyph>
<glyph name="k" format="2">
  <advance width="446"/>
  <unicode hex="006B"/>
  <anchor x="191" y="0" name="bottom"/>
  <anchor x="191" y="510" name="top"/>
  <outline>
    <contour>
      <point x="82" y="225" type="line"/>
      <point x="206" y="225" type="line"/>
      <point x="352" y="0" type="line"/>
      <point x="448" y="0" type="line"/>
      <point x="279" y="260" type="line"/>
      <point x="445" y="510" type="line"/>
      <point x="349" y="510" type="line"/>
      <point x="206" y="295" type="line"/>
      <point x="82" y="295" type="line"/>
    </contour>
    <contour>
      <point x="0" y="0" type="line"/>
      <point x="82" y="0" type="line"/>
      <point x="82" y="743" type="line"/>
      <point x="0" y="743" type="line"/>
    </contour>
  </outline>
</glyph>
<glyph name="l" format="2">
  <advance width="82"/>
  <unicode hex="006C"/>
  <anchor x="41" y="0" name="bottom"/>
  <anchor x="41" y="372" name="center"/>
  <anchor x="41" y="743" name="top"/>
  <anchor x="82" y="743" name="topright"/>
  <outline>
    <contour>
      <point x="0" y="0" type="line"/>
      <point x="82" y="0" type="line"/>
      <point x="82" y="743" type="line"/>
      <point x="0" y="743" type="line"/>
    </contour>
  </outline>
</glyph>
<glyph name="m" format="2">
  <advance width="774"/>
  <unicode hex="006D"/>
  <anchor x="212" y="0" name="bottom"/>
  <anchor x="212" y="510" name="top"/>
  <outline>
    <contour>
      <point x="0" y="0" type="line"/>
      <point x="82" y="0" type="line"/>
      <point x="82" y="266" type="line" smooth="yes"/>
      <point x="82" y="415"/>
      <point x="109" y="448"/>
      <point x="233" y="448" type="curve" smooth="yes"/>
      <point x="329" y="448"/>
      <point x="346" y="427"/>
      <point x="346" y="307" type="curve" smooth="yes"/>
      <point x="346" y="0" type="line"/>
      <point x="428" y="0" type="line"/>
      <point x="428" y="266" type="line" smooth="yes"/>
      <point x="428" y="415"/>
      <point x="455" y="448"/>
      <point x="579" y="448" type="curve" smooth="yes"/>
      <point x="675" y="448"/>
      <point x="692" y="427"/>
      <point x="692" y="307" type="curve" smooth="yes"/>
      <point x="692" y="0" type="line"/>
      <point x="774" y="0" type="line"/>
      <point x="774" y="319" type="line" smooth="yes"/>
      <point x="774" y="472"/>
      <point x="734" y="518"/>
      <point x="601" y="518" type="curve" smooth="yes"/>
      <point x="505" y="518"/>
      <point x="449" y="493"/>
      <point x="419" y="437" type="curve"/>
      <point x="415" y="437" type="line"/>
      <point x="393" y="499"/>
      <point x="345" y="518"/>
      <point x="255" y="518" type="curve" smooth="yes"/>
      <point x="160" y="518"/>
      <point x="107" y="493"/>
      <point x="83" y="437" type="curve"/>
      <point x="79" y="437" type="line"/>
      <point x="70" y="510" type="line"/>
      <point x="0" y="510" type="line"/>
    </contour>
  </outline>
</glyph>
<glyph name="n" format="2">
  <advance width="428"/>
  <unicode hex="006E"/>
  <anchor x="212" y="0" name="bottom"/>
  <anchor x="212" y="510" name="top"/>
  <outline>
    <contour>
      <point x="0" y="0" type="line"/>
      <point x="82" y="0" type="line"/>
      <point x="82" y="269" type="line" smooth="yes"/>
      <point x="82" y="415"/>
      <point x="109" y="448"/>
      <point x="233" y="448" type="curve" smooth="yes"/>
      <point x="329" y="448"/>
      <point x="346" y="427"/>
      <point x="346" y="307" type="curve" smooth="yes"/>
      <point x="346" y="0" type="line"/>
      <point x="428" y="0" type="line"/>
      <point x="428" y="319" type="line" smooth="yes"/>
      <point x="428" y="463"/>
      <point x="380" y="518"/>
      <point x="255" y="518" type="curve" smooth="yes"/>
      <point x="160" y="518"/>
      <point x="107" y="493"/>
      <point x="83" y="437" type="curve"/>
      <point x="79" y="437" type="line"/>
      <point x="70" y="510" type="line"/>
      <point x="0" y="510" type="line"/>
    </contour>
  </outline>
</glyph>
<glyph name="o" format="2">
  <advance width="438"/>
  <unicode hex="006F"/>
  <anchor x="219" y="0" name="bottom"/>
  <anchor x="219" y="255" name="center"/>
  <anchor x="454" y="10" name="ogonek"/>
  <anchor x="219" y="510" name="top"/>
  <anchor x="493" y="510" name="topright"/>
  <outline>
    <contour>
      <point x="219" y="-8" type="curve" smooth="yes"/>
      <point x="409" y="-8"/>
      <point x="443" y="31"/>
      <point x="443" y="251" type="curve" smooth="yes"/>
      <point x="443" y="259" type="line" smooth="yes"/>
      <point x="443" y="479"/>
      <point x="409" y="518"/>
      <point x="219" y="518" type="curve" smooth="yes"/>
      <point x="28" y="518"/>
      <point x="-5" y="471"/>
      <point x="-5" y="259" type="curve" smooth="yes"/>
      <point x="-5" y="251" type="line" smooth="yes"/>
      <point x="-5" y="31"/>
      <point x="29" y="-8"/>
    </contour>
    <contour>
      <point x="219" y="62" type="curve" smooth="yes"/>
      <point x="87" y="62"/>
      <point x="77" y="73"/>
      <point x="77" y="231" type="curve" smooth="yes"/>
      <point x="77" y="279" type="line" smooth="yes"/>
      <point x="77" y="437"/>
      <point x="87" y="448"/>
      <point x="219" y="448" type="curve" smooth="yes"/>
      <point x="351" y="448"/>
      <point x="361" y="437"/>
      <point x="361" y="279" type="curve" smooth="yes"/>
      <point x="361" y="231" type="line" smooth="yes"/>
      <point x="361" y="73"/>
      <point x="351" y="62"/>
    </contour>
  </outline>
</glyph>
<glyph name="r" format="2">
  <advance width="270"/>
  <unicode hex="0072"/>
  <anchor x="100" y="0" name="bottom"/>
  <anchor x="100" y="510" name="top"/>
  <outline>
    <contour>
      <point x="0" y="0" type="line"/>
      <point x="82" y="0" type="line"/>
      <point x="82" y="266" type="line" smooth="yes"/>
      <point x="82" y="415"/>
      <point x="112" y="448"/>
      <point x="248" y="448" type="curve" smooth="yes"/>
      <point x="270" y="448" type="line"/>
      <point x="270" y="518" type="line"/>
      <point x="166" y="518"/>
      <point x="110" y="493"/>
      <point x="83" y="437" type="curve"/>
      <point x="79" y="437" type="line"/>
      <point x="70" y="510" type="line"/>
      <point x="0" y="510" type="line"/>
    </contour>
  </outline>
</glyph>
<glyph name="s" format="2">
  <advance width="361"/>
  <unicode hex="0073"/>
  <anchor x="181" y="0" name="bottom"/>
  <anchor x="181" y="510" name="top"/>
  <outline>
    <contour>
      <point x="179" y="-8" type="curve" smooth="yes"/>
      <point x="322" y="-8"/>
      <point x="366" y="28"/>
      <point x="366" y="146" type="curve" smooth="yes"/>
      <point x="366" y="241"/>
      <point x="339" y="275"/>
      <point x="252" y="286" type="curve" smooth="yes"/>
      <point x="136" y="300" type="line" smooth="yes"/>
      <point x="86" y="306"/>
      <point x="77" y="316"/>
      <point x="77" y="367" type="curve" smooth="yes"/>
      <point x="77" y="435"/>
      <point x="95" y="448"/>
      <point x="190" y="448" type="curve" smooth="yes"/>
      <point x="238" y="448"/>
      <point x="299" y="443"/>
      <point x="344" y="435" type="curve"/>
      <point x="344" y="503" type="line"/>
      <point x="284" y="513"/>
      <point x="221" y="518"/>
      <point x="182" y="518" type="curve" smooth="yes"/>
      <point x="40" y="518"/>
      <point x="-5" y="482"/>
      <point x="-5" y="368" type="curve" smooth="yes"/>
      <point x="-5" y="276"/>
      <point x="24" y="239"/>
      <point x="107" y="229" type="curve" smooth="yes"/>
      <point x="223" y="215" type="line" smooth="yes"/>
      <point x="278" y="208"/>
      <point x="284" y="200"/>
      <point x="284" y="146" type="curve" smooth="yes"/>
      <point x="284" y="76"/>
      <point x="265" y="62"/>
      <point x="170" y="62" type="curve" smooth="yes"/>
      <point x="117" y="62"/>
      <point x="50" y="67"/>
      <point x="0" y="75" type="curve"/>
      <point x="0" y="7" type="line"/>
      <point x="66" y="-3"/>
      <point x="136" y="-8"/>
    </contour>
  </outline>
</glyph>
<glyph name="t" format="2">
  <advance width="317"/>
  <unicode hex="0074"/>
  <anchor x="160" y="0" name="bottom"/>
  <anchor x="160" y="743" name="top"/>
  <outline>
    <contour>
      <point x="103" y="0" type="line"/>
      <point x="185" y="0" type="line"/>
      <point x="185" y="688" type="line"/>
      <point x="103" y="688" type="line"/>
    </contour>
    <contour>
      <point x="0" y="440" type="line"/>
      <point x="120" y="440" type="line"/>
      <point x="120" y="510" type="line"/>
      <point x="0" y="510" type="line"/>
    </contour>
    <contour>
      <point x="169" y="440" type="line"/>
      <point x="317" y="440" type="line"/>
      <point x="317" y="510" type="line"/>
      <point x="169" y="510" type="line"/>
    </contour>
  </outline>
</glyph>
<glyph name="u" format="2">
  <advance width="428"/>
  <unicode hex="0075"/>
  <anchor x="215" y="0" name="bottom"/>
  <anchor x="425" y="10" name="ogonek"/>
  <anchor x="215" y="510" name="top"/>
  <anchor x="458" y="510" name="topright"/>
  <outline>
    <contour>
      <point x="428" y="510" type="line"/>
      <point x="346" y="510" type="line"/>
      <point x="346" y="241" type="line" smooth="yes"/>
      <point x="346" y="95"/>
      <point x="319" y="62"/>
      <point x="195" y="62" type="curve" smooth="yes"/>
      <point x="99" y="62"/>
      <point x="82" y="83"/>
      <point x="82" y="203" type="curve" smooth="yes"/>
      <point x="82" y="510" type="line"/>
      <point x="0" y="510" type="line"/>
      <point x="0" y="191" type="line" smooth="yes"/>
      <point x="0" y="47"/>
      <point x="48" y="-8"/>
      <point x="173" y="-8" type="curve" smooth="yes"/>
      <point x="268" y="-8"/>
      <point x="321" y="17"/>
      <point x="345" y="73" type="curve"/>
      <point x="349" y="73" type="line"/>
      <point x="358" y="0" type="line"/>
      <point x="428" y="0" type="line"/>
    </contour>
  </outline>
</glyph>
<glyph name="v" format="2">
  <advance width="478"/>
  <unicode hex="0076"/>
  <anchor x="238" y="0" name="bottom"/>
  <anchor x="238" y="510" name="top"/>
  <outline>
    <contour>
      <point x="194" y="0" type="line"/>
      <point x="284" y="0" type="line"/>
      <point x="478" y="510" type="line"/>
      <point x="393" y="510" type="line"/>
      <point x="241" y="90" type="line"/>
      <point x="237" y="90" type="line"/>
      <point x="85" y="510" type="line"/>
      <point x="0" y="510" type="line"/>
    </contour>
  </outline>
</glyph>
<glyph name="w" format="2">
  <advance width="628"/>
  <unicode hex="0077"/>
  <anchor x="316" y="0" name="bottom"/>
  <anchor x="316" y="510" name="top"/>
  <outline>
    <contour>
      <point x="100" y="0" type="line"/>
      <point x="221" y="0" type="line"/>
      <point x="314" y="428" type="line"/>
      <point x="407" y="0" type="line"/>
      <point x="528" y="0" type="line"/>
      <point x="628" y="510" type="line"/>
      <point x="544" y="510" type="line"/>
      <point x="469" y="90" type="line"/>
      <point x="465" y="90" type="line"/>
      <point x="373" y="510" type="line"/>
      <point x="255" y="510" type="line"/>
      <point x="163" y="90" type="line"/>
      <point x="159" y="90" type="line"/>
      <point x="84" y="510" type="line"/>
      <point x="0" y="510" type="line"/>
    </contour>
  </outline>
</glyph>
<glyph name="x" format="2">
  <advance width="462"/>
  <unicode hex="0078"/>
  <anchor x="228" y="0" name="bottom"/>
  <anchor x="228" y="510" name="top"/>
  <outline>
    <contour>
      <point x="363" y="0" type="line"/>
      <point x="462" y="0" type="line"/>
      <point x="98" y="510" type="line"/>
      <point x="0" y="510" type="line"/>
    </contour>
    <contour>
      <point x="0" y="0" type="line"/>
      <point x="99" y="0" type="line"/>
      <point x="462" y="510" type="line"/>
      <point x="363" y="510" type="line"/>
    </contour>
  </outline>
</glyph>
<glyph name="y" format="2">
  <advance width="428"/>
  <unicode hex="0079"/>
  <anchor x="217" y="0" name="bottom"/>
  <anchor x="217" y="510" name="top"/>
  <outline>
    <contour>
      <point x="223" y="-208" type="curve" smooth="yes"/>
      <point x="397" y="-208"/>
      <point x="428" y="-169"/>
      <point x="428" y="51" type="curve" smooth="yes"/>
      <point x="428" y="510" type="line"/>
      <point x="346" y="510" type="line"/>
      <point x="346" y="244" type="line" smooth="yes"/>
      <point x="346" y="95"/>
      <point x="329" y="62"/>
      <point x="195" y="62" type="curve" smooth="yes"/>
      <point x="91" y="62"/>
      <point x="82" y="83"/>
      <point x="82" y="203" type="curve" smooth="yes"/>
      <point x="82" y="510" type="line"/>
      <point x="0" y="510" type="line"/>
      <point x="0" y="251" type="line" smooth="yes"/>
      <point x="0" y="31"/>
      <point x="16" y="-8"/>
      <point x="173" y="-8" type="curve" smooth="yes"/>
      <point x="271" y="-8"/>
      <point x="317" y="17"/>
      <point x="342" y="73" type="curve"/>
      <point x="346" y="73" type="line"/>
      <point x="346" y="31" type="line" smooth="yes"/>
      <point x="346" y="-126"/>
      <point x="338" y="-138"/>
      <point x="220" y="-138" type="curve" smooth="yes"/>
      <point x="160" y="-138"/>
      <point x="83" y="-131"/>
      <point x="32" y="-120" type="curve"/>
      <point x="32" y="-188" type="line"/>
      <point x="76" y="-200"/>
      <point x="155" y="-208"/>
    </contour>
  </outline>
</glyph>
<glyph name="z" format="2">
  <advance width="404"/>
  <unicode hex="007A"/>
  <anchor x="208" y="0" name="bottom"/>
  <anchor x="202" y="255" name="center"/>
  <anchor x="208" y="510" name="top"/>
  <outline>
    <contour>
      <point x="0" y="0" type="line"/>
      <point x="404" y="0" type="line"/>
      <point x="404" y="70" type="line"/>
      <point x="106" y="70" type="line"/>
      <point x="106" y="74" type="line"/>
      <point x="402" y="447" type="line"/>
      <point x="402" y="510" type="line"/>
      <point x="12" y="510" type="line"/>
      <point x="12" y="440" type="line"/>
      <point x="296" y="440" type="line"/>
      <point x="296" y="436" type="line"/>
      <point x="0" y="63" type="line"/>
    </contour>
  </outline>
</glyph>
